# xmcd
#
# Track frame offsets:
#	150
#	15690
#	33944
#	48846
#	64773
#	76501
#	87291
#	99097
#	116087
#	129023
#
# Disc length: 1967 seconds
#
# Revision: 0
# Processed by: cddbd v1.5.1PL0 Copyright (c) Steve Scherf et al.
# Submitted via: dBpowerAMP V4.0
#
DISCID=6507ad0a
DTITLE=Various Artist - Pickin' On... Travis Tritt,  A Tribute
DYEAR=1900
DGENRE=Country
TTITLE0=Country Club feat. C. Jones and W.D. Lord
TTITLE1=It's A Great Day To Be Alive feat. J.D. Scott
TTITLE2=T-R-O-U-B-L-E feat. J. Chesnut
TTITLE3=Anymore feat. J. Colucci and T. Tritt
TTITLE4=Put Some Drive In Your Country feat. T. Tritt
TTITLE5=The Whiskey Ain't Workin' feat. M. Stuart and R. Scaife
TTITLE6=Ten Feet Tall And Bulletproof feat. T. Tritt
TTITLE7=I'm Gonna Be Somebody feat. J. Colucci and S.H. Harris
TTITLE8=Here's A Quarter, Call Someone Who Cares feat. T. Tritt
TTITLE9=Macon To Marietta feat. Barry Waldrep and Rick Carter
EXTD=
EXTT0=
EXTT1=
EXTT2=
EXTT3=
EXTT4=
EXTT5=
EXTT6=
EXTT7=
EXTT8=
EXTT9=
PLAYORDER=
